<svg xmlns="http://www.w3.org/2000/svg" viewBox="0 0 512 512" role="img" aria-labelledby="title desc">
  <title id="title">CapDent</title>
  <desc id="desc">A navy dental tooth wearing a clinic cap with a teal band and gold shield.</desc>
  <defs>
    <linearGradient id="navy" x1="96" y1="76" x2="402" y2="428" gradientUnits="userSpaceOnUse">
      <stop stop-color="#14396B"/>
      <stop offset="1" stop-color="#071F49"/>
    </linearGradient>
    <linearGradient id="teal" x1="146" y1="227" x2="372" y2="274" gradientUnits="userSpaceOnUse">
      <stop stop-color="#08AFC0"/>
      <stop offset="1" stop-color="#08A99E"/>
    </linearGradient>
    <linearGradient id="gold" x1="228" y1="165" x2="286" y2="235" gradientUnits="userSpaceOnUse">
      <stop stop-color="#FFDA69"/>
      <stop offset="1" stop-color="#F1B817"/>
    </linearGradient>
    <filter id="shadow" x="55" y="50" width="410" height="425" filterUnits="userSpaceOnUse">
      <feDropShadow dx="0" dy="9" stdDeviation="10" flood-color="#092451" flood-opacity=".12"/>
    </filter>
  </defs>
  <rect width="512" height="512" rx="96" fill="#fff"/>
  <g filter="url(#shadow)">
    <path fill="url(#navy)" d="M84 178c8-32 37-48 69-59 35-12 61-31 92-49 7-4 15-6 23-6 8 0 16 2 23 6 31 18 57 37 92 49 32 11 61 27 69 59 5 22-4 43-20 61l-37 41c-30-19-74-30-127-30s-97 11-127 30l-37-41c-16-18-25-39-20-61Z"/>
    <path fill="#fff" d="M109 181c5-19 26-30 52-39 37-13 67-34 97-51 6-4 14-4 20 0 30 17 60 38 97 51 26 9 47 20 52 39 3 12-3 24-13 35l-23 25c-34-15-76-23-123-23s-89 8-123 23l-23-25c-10-11-16-23-13-35Z"/>
    <path fill="url(#navy)" d="m268 112 109 69-27 52c-27-10-54-16-82-17-28 1-55 7-82 17l-27-52 109-69Z"/>
    <path fill="#fff" d="M145 245c35-17 76-25 123-25s88 8 123 25l-12 27c-31-13-68-20-111-20s-80 7-111 20l-12-27Z"/>
    <path fill="#fff" stroke="url(#navy)" stroke-width="29" stroke-linejoin="round" d="M151 249c29-13 69-20 117-20s88 7 117 20c3 64-15 143-52 189-12 15-28 9-32-10-8-38-17-69-33-69s-25 31-33 69c-4 19-20 25-32 10-37-46-55-125-52-189Z"/>
    <path fill="url(#teal)" d="M145 241c31-13 72-21 123-21s92 8 123 21l-3 42c-37-18-77-27-120-27s-83 9-120 27l-3-42Z"/>
    <path fill="url(#gold)" d="M268 145c14 10 28 16 43 20v21c0 29-15 52-43 68-28-16-43-39-43-68v-21c15-4 29-10 43-20Z"/>
    <path fill="#E9A90F" d="M268 145c14 10 28 16 43 20v21c0 29-15 52-43 68V145Z" opacity=".72"/>
  </g>
</svg>
