<svg xmlns="http://www.w3.org/2000/svg" width="1200" height="630" viewBox="0 0 1200 630"><rect width="1200" height="630" fill="#f7f8f6"/><rect x="66" y="64" width="1068" height="502" rx="28" fill="#fff" stroke="#dfe5e2" stroke-width="2"/><rect x="112" y="108" width="62" height="62" rx="17" fill="#087f72"/><path d="M143 119v40M128 127l30 24M158 127l-30 24" fill="none" stroke="#fff" stroke-width="5" stroke-linecap="round"/><text x="194" y="151" font-family="Arial,sans-serif" font-size="34" font-weight="700" fill="#0f2933">CapDent</text><text x="112" y="257" font-family="Arial,sans-serif" font-size="62" font-weight="700" fill="#0f2933">Run the clinic.</text><text x="112" y="327" font-family="Arial,sans-serif" font-size="62" font-weight="700" fill="#087f72">Not the paperwork.</text><text x="112" y="388" font-family="Arial,sans-serif" font-size="24" fill="#64767c">Patients, treatments, payments and follow-ups in one clear app.</text><rect x="112" y="442" width="205" height="54" rx="9" fill="#087f72"/><text x="214" y="477" text-anchor="middle" font-family="Arial,sans-serif" font-size="18" font-weight="700" fill="#fff">All features free</text><rect x="704" y="114" width="350" height="388" rx="22" fill="#f7f9f8" stroke="#dfe5e2"/><rect x="730" y="140" width="298" height="74" rx="12" fill="#087f72"/><text x="752" y="169" font-family="Arial,sans-serif" font-size="14" fill="#c9eee8">TODAY'S COLLECTIONS</text><text x="752" y="199" font-family="Arial,sans-serif" font-size="30" font-weight="700" fill="#fff">₹42,600</text><rect x="730" y="232" width="142" height="92" rx="12" fill="#fff" stroke="#dfe5e2"/><rect x="886" y="232" width="142" height="92" rx="12" fill="#fff" stroke="#dfe5e2"/><text x="750" y="262" font-family="Arial,sans-serif" font-size="13" fill="#64767c">WAITING</text><text x="750" y="302" font-family="Arial,sans-serif" font-size="32" font-weight="700" fill="#0f2933">6</text><text x="906" y="262" font-family="Arial,sans-serif" font-size="13" fill="#64767c">PENDING DUES</text><text x="906" y="302" font-family="Arial,sans-serif" font-size="25" font-weight="700" fill="#0f2933">₹18,400</text><rect x="730" y="342" width="298" height="134" rx="12" fill="#fff" stroke="#dfe5e2"/><circle cx="758" cy="380" r="15" fill="#e8f4f1"/><rect x="786" y="367" width="112" height="10" rx="5" fill="#17313b" opacity=".9"/><rect x="786" y="386" width="152" height="8" rx="4" fill="#64767c" opacity=".55"/><circle cx="758" cy="430" r="15" fill="#e8f4f1"/><rect x="786" y="417" width="128" height="10" rx="5" fill="#17313b" opacity=".9"/><rect x="786" y="436" width="166" height="8" rx="4" fill="#64767c" opacity=".55"/></svg>